<svg width="473" height="245" viewBox="0 0 473 245" fill="none" xmlns="http://www.w3.org/2000/svg">
<path d="M0.333333 11C0.333333 16.891 5.10896 21.6667 11 21.6667C16.891 21.6667 21.6667 16.891 21.6667 11C21.6667 5.10896 16.891 0.333333 11 0.333333C5.10896 0.333333 0.333333 5.10896 0.333333 11ZM341 106.5L339.486 107.807L341 106.5ZM437.895 186.265L437.073 188.088L437.895 186.265ZM461 244.5L472.514 224.481L449.42 224.519L461 244.5ZM11 13C12.1725 13 13.7947 13.0421 15.8294 13.1275L15.9972 9.13107C13.9384 9.04461 12.2532 9 11 9L11 13ZM25.7245 13.6792C28.7185 13.8752 32.0462 14.1132 35.6596 14.3922L35.9676 10.4041C32.3406 10.124 28.9973 9.88493 25.9859 9.68771L25.7245 13.6792ZM45.501 15.1957C48.6723 15.4677 51.9921 15.7642 55.4375 16.085L55.8083 12.1023C52.3534 11.7806 49.0239 11.4832 45.8427 11.2103L45.501 15.1957ZM65.3014 17.037C68.5179 17.3582 71.8152 17.6978 75.1775 18.0557L75.6009 14.0782C72.2297 13.7194 68.9239 13.3788 65.6989 13.0568L65.3014 17.037ZM85.0597 19.1401C88.3122 19.5078 91.6085 19.8913 94.9361 20.2903L95.4124 16.3188C92.0755 15.9187 88.7702 15.5341 85.5091 15.1654L85.0597 19.1401ZM104.799 21.5083C108.067 21.9237 111.352 22.3535 114.643 22.7975L115.178 18.8334C111.876 18.388 108.581 17.9569 105.304 17.5402L104.799 21.5083ZM124.479 24.1655C127.764 24.6365 131.042 25.1214 134.304 25.62L134.909 21.6659C131.634 21.1654 128.343 20.6787 125.047 20.206L124.479 24.1655ZM144.112 27.1708C147.407 27.71 150.673 28.2634 153.895 28.8307L154.589 24.8913C151.349 24.321 148.068 23.7649 144.758 23.2233L144.112 27.1708ZM163.643 30.6165C166.949 31.2472 170.192 31.8932 173.359 32.5543L174.176 28.6387C170.985 27.9725 167.719 27.322 164.393 26.6874L163.643 30.6165ZM183.057 34.6852C186.379 35.4549 189.585 36.2425 192.657 37.0475L193.671 33.1783C190.558 32.3624 187.314 31.5657 183.96 30.7884L183.057 34.6852ZM202.145 39.7276C205.493 40.7519 208.603 41.7993 211.441 42.8685L212.852 39.1254C209.92 38.0209 206.728 36.9466 203.315 35.9026L202.145 39.7276ZM220.333 46.7631C221.856 47.5581 223.205 48.3552 224.373 49.1522L226.627 45.8478C225.305 44.9457 223.817 44.0696 222.185 43.2174L220.333 46.7631ZM224.373 49.1522C225.726 50.075 227.087 50.9405 228.457 51.7549L230.501 48.3167C229.201 47.5436 227.909 46.7225 226.627 45.8478L224.373 49.1522ZM237.024 56.1886C239.974 57.5122 242.954 58.6633 245.959 59.6988L247.262 55.917C244.35 54.9135 241.483 53.8055 238.661 52.5392L237.024 56.1886ZM255.068 62.5218C258.093 63.3751 261.146 64.1731 264.214 64.9671L265.216 61.0947C262.15 60.3011 259.133 59.5125 256.155 58.6721L255.068 62.5218ZM273.309 67.349C276.283 68.1536 279.275 69.0038 282.287 69.9468L283.483 66.1295C280.405 65.166 277.36 64.301 274.354 63.4878L273.309 67.349ZM291.076 72.9823C293.901 74.0611 296.743 75.2577 299.602 76.6088L301.311 72.9922C298.35 71.5934 295.414 70.3572 292.504 69.2456L291.076 72.9823ZM307.798 80.9082C310.382 82.4067 312.982 84.0573 315.598 85.8864L317.891 82.6083C315.18 80.7131 312.484 79.0019 309.804 77.4479L307.798 80.9082ZM322.962 91.4947C325.255 93.3899 327.562 95.439 329.88 97.6595L332.647 94.7707C330.259 92.4838 327.88 90.3696 325.51 88.4112L322.962 91.4947ZM336.379 104.312C337.412 105.44 338.448 106.604 339.486 107.807L342.514 105.193C341.45 103.961 340.388 102.767 339.328 101.61L336.379 104.312ZM339.486 107.807C340.572 109.065 341.733 110.394 342.965 111.784L345.959 109.132C344.739 107.754 343.589 106.438 342.514 105.193L339.486 107.807ZM350.071 119.613C352.353 122.07 354.788 124.637 357.359 127.282L360.227 124.493C357.678 121.872 355.264 119.326 353.002 116.891L350.071 119.613ZM364.825 134.784C367.281 137.195 369.831 139.641 372.461 142.098L375.192 139.176C372.587 136.742 370.061 134.319 367.627 131.929L364.825 134.784ZM380.294 149.226C382.911 151.542 385.59 153.849 388.323 156.128L390.885 153.056C388.184 150.804 385.535 148.523 382.946 146.231L380.294 149.226ZM396.574 162.782C399.363 164.954 402.196 167.081 405.064 169.143L407.399 165.895C404.576 163.865 401.783 161.769 399.031 159.626L396.574 162.782ZM413.819 175.155C416.811 177.11 419.831 178.979 422.869 180.742L424.877 177.282C421.905 175.558 418.945 173.726 416.007 171.806L413.819 175.155ZM432.252 185.802C433.857 186.6 435.464 187.363 437.073 188.088L438.717 184.442C437.156 183.738 435.594 182.996 434.032 182.22L432.252 185.802ZM437.073 188.088C438.727 188.834 440.251 189.678 441.655 190.608L443.864 187.273C442.277 186.223 440.565 185.275 438.717 184.442L437.073 188.088ZM449.217 197.716C451.335 200.499 453.002 203.607 454.312 206.92L458.031 205.45C456.61 201.855 454.775 198.414 452.401 195.294L449.217 197.716ZM457.237 217.228C457.927 220.809 458.349 224.445 458.606 228.003L462.596 227.715C462.33 224.042 461.892 220.244 461.165 216.471L457.237 217.228Z" fill="#FF7A00"/>
</svg>
